<?xml version="1.0" standalone="no"?>
<!DOCTYPE svg PUBLIC "-//W3C//DTD SVG 20010904//EN"
 "http://www.w3.org/TR/2001/REC-SVG-20010904/DTD/svg10.dtd">
<svg version="1.0" xmlns="http://www.w3.org/2000/svg"
 width="488.000000pt" height="488.000000pt" viewBox="0 0 488.000000 488.000000"
 preserveAspectRatio="xMidYMid meet">
<metadata>
Created by potrace 1.11, written by Peter Selinger 2001-2013
</metadata>
<g transform="translate(0.000000,488.000000) scale(0.100000,-0.100000)"
fill="#000000" stroke="none">
<path d="M2269 4876 c-2 -2 -40 -6 -83 -10 -44 -4 -82 -8 -85 -10 -3 -2 -30
-6 -59 -10 -120 -14 -485 -118 -516 -147 -6 -5 -16 -9 -24 -9 -21 0 -257 -120
-352 -179 -572 -357 -971 -936 -1104 -1601 -15 -74 -18 -98 -35 -235 -12 -93
-7 -453 7 -535 6 -36 14 -87 18 -115 3 -27 8 -53 10 -56 2 -3 6 -21 9 -39 11
-64 65 -256 85 -305 4 -11 22 -56 40 -99 163 -404 433 -760 774 -1020 83 -63
249 -176 260 -176 2 0 33 -16 67 -36 125 -70 386 -176 519 -210 56 -14 307
-63 351 -69 86 -10 437 -14 514 -4 39 4 93 11 120 14 185 23 445 98 645 186
439 194 827 530 1077 932 58 95 161 295 187 363 69 188 87 243 110 335 54 222
69 339 71 569 2 239 -9 345 -61 594 -16 82 -112 364 -143 424 -5 9 -33 64 -61
122 -29 58 -66 124 -81 148 -16 24 -29 45 -29 48 0 13 -119 175 -194 264 -240
288 -528 503 -886 663 -89 39 -288 111 -340 122 -8 2 -46 11 -85 20 -89 21
-87 21 -170 34 -38 6 -86 13 -105 16 -38 7 -445 16 -451 11z"/>
</g>
</svg>
