<?xml version="1.0" standalone="no"?>
<!DOCTYPE svg PUBLIC "-//W3C//DTD SVG 20010904//EN"
 "http://www.w3.org/TR/2001/REC-SVG-20010904/DTD/svg10.dtd">
<svg version="1.0" xmlns="http://www.w3.org/2000/svg"
 width="500.000000pt" height="500.000000pt" viewBox="0 0 500.000000 500.000000"
 preserveAspectRatio="xMidYMid meet">
<metadata>
Created by potrace 1.11, written by Peter Selinger 2001-2013
</metadata>
<g transform="translate(0.000000,500.000000) scale(0.100000,-0.100000)"
fill="#000000" stroke="none">
<path d="M2195 4784 c-741 -95 -1398 -561 -1733 -1230 -364 -729 -311 -1587
139 -2264 380 -571 983 -931 1674 -1001 157 -16 414 -6 570 21 476 82 871 281
1209 610 201 195 336 381 456 625 100 203 158 381 201 615 30 158 37 485 15
658 -64 500 -292 968 -644 1320 -364 364 -849 596 -1364 651 -131 15 -388 12
-523 -5z m604 -109 c949 -145 1686 -891 1822 -1845 20 -141 18 -468 -5 -605
-115 -711 -536 -1294 -1161 -1607 -214 -108 -429 -176 -670 -213 -134 -21
-429 -24 -565 -6 -469 62 -891 262 -1224 581 -369 353 -588 791 -656 1309 -15
110 -15 392 0 501 55 419 214 796 467 1110 81 99 268 281 371 359 328 248 716
395 1152 435 86 8 366 -4 469 -19z"/>
<path d="M2011 3084 l-524 -697 317 5 316 5 0 -464 0 -463 425 0 425 0 0 465
0 465 310 0 c171 0 310 2 310 4 0 7 -1041 1371 -1048 1373 -4 2 -243 -311
-531 -693z"/>
</g>
</svg>
